<svg
  width="55"
  height="17"
  viewBox="0 0 55 17"
  xmlns="http://www.w3.org/2000/svg"
>
  <polygon fill="#F5A623" points="49.620107 3 47 5.4622632 49.6903971 8 55 3"/>
  <polygon fill="#FFFFFF" points="32.4195754 0 43.0513297 8.49742411 39.6804954 11.1797818 32.7043262 3.29541896 28.1605358 3.29541896 16 17 20.5388107 17 30.4322047 5.85370473 33.287409 9.08086267 29.5616548 9.08086267 27.6602979 11.2304409 35.1896714 11.2304409 37.3784954 13.704581 41.9136844 13.704581 41.9132317 13.7041517 45.7539728 10.647861 49.5956192 13.704581 55 13.704581 37.8207872 0"/>
  <polygon fill="#FFFFFF" points="19.2811127 3 16.5339537 9.83576672 13.78725 3 9.22641061 3 6.4724213 9.85267673 3.71888735 3 0 3 4.01805583 13 8.92678677 13 11.5068303 6.57955951 14.0868739 13 18.9814888 13 23 3"/>
</svg>
